<svg xmlns="http://www.w3.org/2000/svg" xmlns:xlink="http://www.w3.org/1999/xlink" width="145" height="145" viewBox="0 0 145 145"><defs><path id="prefix__a" d="M0.063 0.049L109.307 0.049 109.307 89.026 0.063 89.026z"></path><path id="prefix__c" d="M0.066 0.028L46.648 0.028 46.648 42.414 0.066 42.414z"></path><path id="prefix__e" d="M0.11 0.021L10.501 0.021 10.501 7.184 0.11 7.184z"></path><path id="prefix__g" d="M0.087 0.074L3.578 0.074 3.578 21.088 0.087 21.088z"></path><path id="prefix__i" d="M0.025 0.079L9.124 0.079 9.124 10.436 0.025 10.436z"></path><path id="prefix__k" d="M0.052 0.068L19.649 0.068 19.649 5.825 0.052 5.825z"></path><path id="prefix__m" d="M0.057 0.059L21.285 0.059 21.285 7.785 0.057 7.785z"></path></defs><g fill="none" fill-rule="evenodd"><g transform="translate(14.47 9.094) translate(6.4 32.768)"><mask id="prefix__b" fill="#fff"><use xlink:href="#prefix__a"></use></mask><path fill="#191F28" d="M109.247 23.598c-.742-9.885-8.606-17.943-18.471-18.912-1.802-.177-3.561-.12-5.253.143-3.538.55-7.144.097-10.444-1.296C55.596-4.693 32.432 1.945 20.5 20.297c-2.467 3.796-4.279 7.827-5.467 11.963-1.103 3.84-3.276 7.329-6.503 9.684C3.027 45.962-.41 52.643.116 60.092c.692 9.792 8.388 17.847 18.14 18.967 1.291.149 2.561.176 3.8.093 4.083-.275 8.182.58 11.62 2.8.345.223.694.442 1.047.657 20.02 12.167 46.387 6.545 59.703-12.732 4.895-7.088 7.44-15.062 7.84-23.033.175-3.52 1.29-6.958 3.314-9.843 2.629-3.744 4.043-8.401 3.667-13.403" mask="url(#prefix__b)"></path></g><path fill="#0095FF" d="M36.432 61.35c.494.451 1.757 1.015 4.913.47 4.807-.828 12.942-1.624 21.607.224 8.665 1.849 12.89 2.974 19.403 3.08 6.514.107 8.48-1.76 8.272-5.069 0 0 .266.803-.175 3.595-.442 2.79-1.297 6.358-.036 12 1.262 5.644 1.362 8.01-1.14 7.603-2.503-.408-13.637-1.164-12.609 2.405 1.028 3.57 2.282 10.25-2.026 10.072-4.308-.178-13.493-.7-23.538-6.209-10.043-5.509-9.518-9.969-15.777-10.343 0 0-.96-2.85-.131-5.22.479-1.367 1.695-2.665 1.479-5.78-.217-3.114-1.27-3.76-.242-6.828" transform="translate(14.47 9.094)"></path><path fill="#A0644A" d="M66.406 31.888s-2.054 2.204-.036 7.794 11.214 9.096 16.738 10.585c5.524 1.489 8.981 9.543 6.914 12.438-2.934 4.105-10.624 2.195-20.175.482-5.392-.967-10.363-1.654-10.363-1.654-13.562-1.39-14.622.24-20.42.24 0 0-3.384.155-2.772-2.924.612-3.08 2.624-7.127 14.312-7.136 3.199-.003 2.229-3.985 1.418-5.505-.81-1.52-2.624-1.339-2.624-1.339-4.91-.02-4.098-3.557-8.137-9.108-4.039-5.551-2.186-5.71-3.4-8.85-1.213-3.14-.202-6.204-.202-6.204s2.903-1.822 10.779-.981c7.876.842 13.923 6.383 17.968 12.162" transform="translate(14.47 9.094)"></path><g transform="translate(14.47 9.094) translate(31.503 .045)"><mask id="prefix__d" fill="#fff"><use xlink:href="#prefix__c"></use></mask><path fill="#4C576C" d="M6.157 20.661s1.57 2.017 4.34 1.033c2.77-.984 3.277-3.193 7.311.228 2.618 2.22 5.082 2.148 6.624 1.84 1.305-.261 3.853.156 4.8 2.671.949 2.515-.422 2.843 2.688 3.463 3.109.62-1.532 2.963 2.583 9.39 4.115 6.429 3.537 1.225 5.441-.442 1.905-1.666 7.577-.877 3.455-7.647-4.423-7.266 1.013-7.153 2.567-8.855 1.555-1.706.471-3.557-3.474-8.557-3.945-4.999 4.012-10.21-3.097-8.951-7.108 1.258-5.512-6.53-11.77-3.877-6.258 2.653-9.393-4.108-13.351 1.112-3.959 5.22-10.135-.522-8.396 6.177 1.74 6.699-9.017 6.288-4.841 11.213 4.176 4.925-1.994 7.778 2.252 10.796 4.245 3.017-.27 4.033 3.819 5.489 4.088 1.456-.527-2.57-.496-6.07.031-3.5-2.089-6.1-.455-9.013" mask="url(#prefix__d)"></path></g><path fill="#0095FF" d="M38.044 97.306s.396 4.126 0 7.716c-.396 3.591-1.727 6.3 1.894 4.994 3.62-1.307 21.553-2.684 30.484-1.73 8.933.953-.79-1.978-5.074-3.92-9.213-4.175-15.044-7.82-27.304-7.06" transform="translate(14.47 9.094)"></path><path fill="#A0644A" d="M36.128 97.488s2.13 8.264-2.014 9.468c-4.143 1.204-6.574-3.797-7.037-6.042-.463-2.246-1.213-3.71-3.878-5.18-4.732-2.615-7.836-9.89-4.688-13.247 3.149-3.357 3.126-.81 9.052 0s3.302-4.574 9.525-2.726c6.222 1.848 5.794 6.577 16.956 11.248 11.161 4.67 24.66 7.273 23.598 1.308-1.06-5.965-3.16-8.565 3.363-9.3 6.522-.734 9.759-.858 9.708 2.428-.05 3.286 2.578 24.468-7.37 23.665-9.949-.804-20.834-4.286-29.07-8.419-8.238-4.132-14.049-3.974-18.145-3.203" transform="translate(14.47 9.094)"></path><path fill="#B5A1FF" d="M27.563 82.487c1.197.163 2.045.074 2.688-.157l-9.731-6.958c-.486-.347-1.069-.534-1.666-.534H9.65c-.612 0-.863.787-.363 1.14l9.224 6.509c3.148-3.357 3.125-.81 9.051 0" transform="translate(14.47 9.094)"></path><path fill="#7033F9" d="M37.249 113.32c1.566-4.25 1.656-3.877 8.577-4.889 8.438-1.233 27.074-1.425 29.541 1.58 0 0 4.447 5.41 4.375 8.203-.072 2.795-12.18 5.375-23.609 3.01-11.428-2.364-14.008-6.062-18.884-7.903" transform="translate(14.47 9.094)"></path><g transform="translate(14.47 9.094) translate(49.433 41.733)"><mask id="prefix__f" fill="#fff"><use xlink:href="#prefix__e"></use></mask><path fill="#002259" d="M9.325.387C5.892 2.836.11 3.13.11 3.13c.447-.006 1.808.085 2.479 1.345.337.631.7 1.688.781 2.709C9.786 5.22 12.145-1.624 9.325.387" mask="url(#prefix__f)"></path></g><g transform="translate(14.47 9.094) translate(74.087 73.56)"><mask id="prefix__h" fill="#fff"><use xlink:href="#prefix__g"></use></mask><path fill="#002259" d="M3.144 10.518S1.388 6.58 1.207 1.022c-.16-4.907-3.293 10.359 1.684 20.066 1.332-2.01.449-6.35-.311-8.99-.193-.667.04-1.184.564-1.58" mask="url(#prefix__h)"></path></g><g transform="translate(14.47 9.094) translate(27.469 89.822)"><mask id="prefix__j" fill="#fff"><use xlink:href="#prefix__i"></use></mask><path fill="#002259" d="M9.124 10.436c-.153-1.56-.464-2.77-.464-2.77S1.545 7.904.072.079c0 0-1.254 8.728 9.052 10.357" mask="url(#prefix__j)"></path></g><path fill="#4C576C" d="M75.415 26.105c0 .215-.174.388-.387.388-.215 0-.388-.173-.388-.388 0-.214.173-.387.388-.387.213 0 .387.173.387.387M74.398 9.905c0 .28-.228.508-.509.508-.28 0-.509-.228-.509-.508 0-.281.228-.509.51-.509.28 0 .508.228.508.509M32.448 24.11c0 .384-.311.695-.695.695-.383 0-.694-.311-.694-.694 0-.383.311-.695.694-.695.384 0 .695.312.695.695" transform="translate(14.47 9.094)"></path><path fill="#A0644A" d="M50.383 49.198c0 .143-.116.258-.258.258-.144 0-.258-.115-.258-.258 0-.142.114-.258.258-.258.142 0 .258.116.258.258M33.82 57.654c0 .303-.246.548-.55.548-.302 0-.548-.245-.548-.548 0-.303.246-.55.548-.55.304 0 .55.247.55.55" transform="translate(14.47 9.094)"></path><path fill="#0095FF" d="M34.337 70.517c0 .396-.323.719-.72.719-.397 0-.718-.323-.718-.72 0-.396.321-.718.719-.718.396 0 .719.322.719.719" transform="translate(14.47 9.094)"></path><path fill="#B5A1FF" d="M14.782 83.509c0 .435-.353.789-.789.789-.435 0-.789-.354-.789-.79 0-.435.354-.788.79-.788.435 0 .788.353.788.789" transform="translate(14.47 9.094)"></path><path fill="#0095FF" d="M92.69 67.784c0 .374-.305.678-.68.678-.375 0-.677-.304-.677-.678 0-.375.302-.679.677-.679.375 0 .68.304.68.68" transform="translate(14.47 9.094)"></path><path fill="#191F28" d="M90.992 33.922c0 1.47-1.192 2.662-2.662 2.662-1.471 0-2.663-1.192-2.663-2.662s1.192-2.662 2.663-2.662c1.47 0 2.662 1.192 2.662 2.662" transform="translate(14.47 9.094)"></path><path fill="#A0644A" d="M92.52 85.608c0 .25-.204.454-.455.454-.25 0-.454-.203-.454-.454s.203-.455.454-.455c.25 0 .454.204.454.455M83.42 48.047c0 .372-.301.674-.674.674-.372 0-.674-.302-.674-.674 0-.373.302-.675.674-.675.373 0 .675.302.675.675" transform="translate(14.47 9.094)"></path><path fill="#4C576C" d="M75.497 38.728c0 .178-.144.322-.322.322-.177 0-.322-.144-.322-.322 0-.177.145-.321.322-.321.178 0 .322.144.322.321" transform="translate(14.47 9.094)"></path><path fill="#002259" d="M14.958 101.024c0 .537-.436.972-.972.972-.537 0-.972-.435-.972-.972 0-.536.435-.971.972-.971.536 0 .972.435.972.971" transform="translate(14.47 9.094)"></path><path fill="#FCA700" d="M91.206 115.162c0 .32-.26.58-.58.58-.32 0-.578-.26-.578-.58 0-.32.259-.58.579-.58.32 0 .579.26.579.58" transform="translate(14.47 9.094)"></path><g transform="translate(14.47 9.094) translate(42.71 83.296)"><mask id="prefix__l" fill="#fff"><use xlink:href="#prefix__k"></use></mask><path fill="#002259" d="M.05.068c1.672 1.619 3.86 3.6 7.632 5.757C20.655 3.627 23.52-.47 14.109.845 6.286 1.937 1.606.631.051.067" mask="url(#prefix__l)"></path></g><g transform="translate(14.47 9.094) translate(8.965 74.78)"><mask id="prefix__n" fill="#fff"><use xlink:href="#prefix__m"></use></mask><path fill="#002259" d="M.324 1.2l.154.108h9.127c.597 0 1.18.187 1.666.535l8.308 5.94c.699.015 1.257-.07 1.707-.232L11.555.593C11.069.245 10.486.058 9.889.058H.686C.073.058-.177.846.324 1.2" mask="url(#prefix__n)"></path></g><path stroke="#FCA700" stroke-linecap="round" stroke-linejoin="round" stroke-width="1.688" d="M18.777 91.226s-13.485 14.088 2.33 9.516c15.815-4.572 35.302-5.022 59.886 11.243 24.585 16.264 1.803 17.913 9.634 3.147" transform="translate(14.47 9.094)"></path><path stroke="#0095FF" stroke-linecap="round" stroke-linejoin="round" stroke-width="2.25" d="M69.313 32.277c0 2.674-2.168 4.841-4.842 4.841-2.675 0-4.842-2.167-4.842-4.841 0-2.674 2.167-4.842 4.842-4.842" transform="translate(14.47 9.094)"></path><path fill="#0095FF" d="M22.754 52.639c0-6.53-5.5-11.774-12.12-11.353-5.558.353-10.115 4.8-10.59 10.348-.298 3.47.964 6.646 3.16 8.915l-.002.002 7.58 9.376c.307.378.884.378 1.189 0l7.58-9.376v-.002c1.981-2.048 3.203-4.835 3.203-7.91" transform="translate(14.47 9.094)"></path><path fill="#F5F7F8" d="M18.947 52.639c0 4.18-3.39 7.57-7.57 7.57s-7.57-3.39-7.57-7.57 3.39-7.57 7.57-7.57 7.57 3.39 7.57 7.57" transform="translate(14.47 9.094)"></path><path fill="#191F28" fill-rule="nonzero" d="M15.381 49.354c.263-.262.689-.262.951 0 .246.246.262.636.046.9l-.046.051-5.618 5.619c-.246.246-.636.261-.9.046l-.051-.046-3.341-3.342c-.263-.262-.263-.688 0-.95.246-.247.635-.262.9-.047l.05.046 2.866 2.866 5.143-5.143z" transform="translate(14.47 9.094)"></path></g></svg>